<svg id="Layer_1" enable-background="new 0 0 256 256" height="512" viewBox="0 0 256 256" width="512" xmlns="http://www.w3.org/2000/svg"><g><path d="m195.7 198.9h-2.1v-2.1c0-1.5-1.3-2.8-2.8-2.8s-2.8 1.3-2.8 2.8v2.1h-2.1c-1.5 0-2.8 1.3-2.8 2.8s1.3 2.8 2.8 2.8h2.1v2.1c0 1.5 1.3 2.8 2.8 2.8s2.8-1.3 2.8-2.8v-2.1h2.1c1.5 0 2.8-1.3 2.8-2.8 0-1.6-1.3-2.8-2.8-2.8z" fill="#70d6f9"/><path d="m62.8 57.9c-4-.7-7.1-3.8-7.9-7.7 0-.1-.1-.2-.2-.1-.1 0-.1.1-.1.1-.8 4-3.9 7-7.9 7.7-.1 0-.2.1-.2.2s.1.1.2.2c4 .7 7.1 3.8 7.9 7.7 0 .1.1.2.2.1.1 0 .1-.1.1-.1.8-4 3.9-7 7.9-7.7.1 0 .2-.1.2-.2 0-.2-.1-.2-.2-.2z" fill="#f5c84c"/><circle cx="214" cy="192" fill="#f5c84c" r="3"/><circle cx="179" cy="44" fill="#fc657e" r="3"/><circle cx="81" cy="218" fill="#87d147" r="3"/><circle cx="78" cy="44" fill="#70d6f9" r="3"/><path d="m245.6 176.5h-63.2c-3.1 0-5.7-2.6-5.7-5.7s2.6-5.7 5.7-5.7h63.2c3.1 0 5.7 2.6 5.7 5.7s-2.6 5.7-5.7 5.7z" fill="#edf4fc"/><g fill="#c7d7e5"><path d="m252.4 113.7c-.2-.2-.3-.4-.5-.6l-32.9-32.9c-2-2.1-5.3-2.1-7.4-.1-.1 0-.1.1-.1.1l-32.9 32.8c-.2.2-.4.4-.5.6-2.7 3.4-.2 8.8 3.9 8.8h66.6c4 0 6.5-5.3 3.8-8.7z"/><path d="m185.4 122.4v42.6h11.4v-42.6z"/><path d="m209.5 122.4h11.4v42.6h-11.4z"/><path d="m233.6 122.4v42.6h11.4v-42.6z"/></g><path d="m71.4 176.5h-63.2c-3.1 0-5.7-2.6-5.7-5.7s2.6-5.7 5.7-5.7h63.2c3.1 0 5.7 2.6 5.7 5.7s-2.6 5.7-5.7 5.7z" fill="#edf4fc"/><path d="m78.2 113.7c-.2-.2-.3-.4-.5-.6l-33-32.9c-2-2.1-5.3-2.1-7.4-.1-.1 0-.1.1-.1.1l-32.9 32.9c-.2.2-.4.4-.5.6-2.7 3.4-.2 8.8 3.9 8.8h66.6c4.1-.1 6.5-5.4 3.9-8.8z" fill="#c7d7e5"/><path d="m11.1 122.4v42.6h11.4v-42.6z" fill="#c7d7e5"/><path d="m35.3 122.4h11.4v42.6h-11.4z" fill="#c7d7e5"/><path d="m59.4 122.4v42.6h11.4v-42.6z" fill="#c7d7e5"/><circle cx="215.1" cy="105.7" fill="#dae6f1" r="6.7"/><circle cx="40.9" cy="105.7" fill="#dae6f1" r="6.7"/><path d="m91.1 206.7c-1.1 0-2.1-.8-2.4-1.9l-3.9-14.5c-.4-1.3.4-2.7 1.8-3.1l14.5-3.9c1.3-.3 2.7.5 3 1.8s-.4 2.7-1.7 3l-12.1 3.2 3.2 12.1c.4 1.3-.4 2.7-1.8 3.1-.1.2-.4.2-.6.2z"/><path d="m178.9 79.2-15-.3c-1.4 0-2.5-1.2-2.5-2.5s1.2-2.5 2.5-2.5l12.5.2.2-12.5c0-1.4 1.2-2.5 2.5-2.5 1.4 0 2.5 1.2 2.5 2.5l-.3 15c.1 1.5-1 2.6-2.4 2.6z"/><circle cx="215" cy="44.5" fill="#f5c84c" r="22.2"/><path d="m217.8 56.8h-8.8c-1.4 0-2.5-1.1-2.5-2.5s1.1-2.5 2.5-2.5h8.8c1.4 0 2.5-1.1 2.5-2.4 0-1.4-1.1-2.5-2.4-2.5h-.1-5.5c-4.1 0-7.5-3.3-7.5-7.5s3.3-7.5 7.5-7.5h7.8c1.4 0 2.5 1.1 2.5 2.5s-1.1 2.5-2.5 2.5h-7.8c-1.4 0-2.5 1.1-2.5 2.5s1.1 2.5 2.5 2.5h5.5c4.1 0 7.5 3.3 7.6 7.4 0 4.1-3.3 7.5-7.4 7.6-.1-.1-.2-.1-.2-.1z"/><path d="m215 60.2c-1.4 0-2.5-1.1-2.5-2.5v-26.7c0-1.4 1.1-2.5 2.5-2.5s2.5 1.1 2.5 2.5v26.7c0 1.4-1.1 2.5-2.5 2.5z"/><path d="m215 69.2c-13.6 0-24.7-11-24.7-24.7s11-24.7 24.7-24.7c13.6 0 24.7 11 24.7 24.7-.1 13.6-11.1 24.6-24.7 24.7zm0-44.4c-10.9 0-19.7 8.8-19.7 19.7s8.8 19.7 19.7 19.7 19.7-8.8 19.7-19.7c-.1-10.8-8.9-19.6-19.7-19.7z"/><circle cx="41" cy="211.5" fill="#f5c84c" r="22.2"/><path d="m43.8 223.8h-8.8c-1.4 0-2.5-1.1-2.5-2.5s1.1-2.5 2.5-2.5h8.8c1.4 0 2.5-1.1 2.5-2.4s-1.1-2.5-2.4-2.5h-.1-5.5c-4.1 0-7.5-3.3-7.5-7.5s3.3-7.5 7.5-7.5h7.8c1.4 0 2.5 1.1 2.5 2.5s-1.1 2.5-2.5 2.5h-7.8c-1.4 0-2.5 1.1-2.5 2.5s1.1 2.5 2.5 2.5h5.5c4.1 0 7.5 3.3 7.6 7.4 0 4.1-3.3 7.5-7.4 7.6-.1-.1-.2-.1-.2-.1z"/><path d="m41 227.2c-1.4 0-2.5-1.1-2.5-2.5v-26.7c0-1.4 1.1-2.5 2.5-2.5s2.5 1.1 2.5 2.5v26.7c0 1.4-1.1 2.5-2.5 2.5z"/><path d="m41 236.2c-13.6 0-24.7-11-24.7-24.7 0-13.6 11-24.7 24.7-24.7s24.7 11 24.7 24.7c-.1 13.6-11.1 24.6-24.7 24.7zm0-44.4c-10.9 0-19.7 8.8-19.7 19.7s8.8 19.7 19.7 19.7 19.7-8.8 19.7-19.7c-.1-10.8-8.9-19.6-19.7-19.7z"/><circle cx="128" cy="128.5" fill="#70d6f9" r="39.9"/><path d="m128 171c-23.4 0-42.4-19-42.4-42.4s19-42.4 42.4-42.4 42.4 19 42.4 42.4-19 42.3-42.4 42.4zm0-79.9c-20.7 0-37.4 16.8-37.4 37.4s16.7 37.5 37.4 37.5 37.4-16.8 37.4-37.4c0-20.7-16.7-37.5-37.4-37.5z"/><path d="m128 171c-15 0-27.2-19-27.2-42.4s12.2-42.5 27.2-42.5 27.2 19 27.2 42.4-12.2 42.5-27.2 42.5zm0-79.9c-12.2 0-22.2 16.8-22.2 37.4s10 37.5 22.2 37.5 22.2-16.8 22.2-37.4-10-37.5-22.2-37.5z"/><path d="m128 170.3c-1.4 0-2.5-1.1-2.5-2.5v-78.5c0-1.4 1.1-2.5 2.5-2.5s2.5 1.1 2.5 2.5v78.5c0 1.4-1.1 2.5-2.5 2.5z"/><path d="m165 143.9h-74.7c-1.4 0-2.5-1.1-2.5-2.5s1.1-2.5 2.5-2.5h74.7c1.4 0 2.5 1.1 2.5 2.5s-1.2 2.5-2.5 2.5z"/><path d="m165 118.2h-74.7c-1.4 0-2.5-1.1-2.5-2.5s1.1-2.5 2.5-2.5h74.7c1.4 0 2.5 1.1 2.5 2.5s-1.2 2.5-2.5 2.5z"/><path d="m245.6 179h-63.2c-4.5 0-8.2-3.7-8.2-8.2s3.7-8.2 8.2-8.2h63.2c4.5 0 8.2 3.7 8.2 8.2s-3.7 8.2-8.2 8.2zm-63.2-11.4c-1.8 0-3.2 1.4-3.2 3.2s1.4 3.2 3.2 3.2h63.2c1.8 0 3.2-1.4 3.2-3.2s-1.4-3.2-3.2-3.2z"/><path d="m248.5 124.9h-66.6c-2.9-.1-5.4-1.7-6.6-4.3-1.4-2.7-1.1-6 .8-8.5.2-.3.5-.6.7-.8l32.9-32.8c3-3.1 7.9-3.1 10.9-.1 0 0 .1.1.1.1l32.9 32.8c.3.3.5.5.7.8 1.9 2.5 2.2 5.8.8 8.5-1.2 2.6-3.7 4.3-6.6 4.3zm-33.3-43.8c-.8 0-1.5.3-2 .9l-32.9 32.8c-.1.1-.2.2-.3.4-.7.9-.8 2.2-.2 3.2.4.9 1.2 1.4 2.1 1.5h66.6c.9-.1 1.8-.7 2.1-1.5.5-1 .5-2.3-.2-3.2-.1-.1-.2-.2-.3-.3l-32.9-32.9c-.5-.6-1.2-.9-2-.9z"/><path d="m196.8 167.6h-11.4c-1.4 0-2.5-1.1-2.5-2.5v-42.6c0-1.4 1.1-2.5 2.5-2.5h11.4c1.4 0 2.5 1.1 2.5 2.5v42.6c0 1.3-1.2 2.5-2.5 2.5zm-8.9-5h6.4v-37.6h-6.4z"/><path d="m220.9 167.6h-11.4c-1.4 0-2.5-1.1-2.5-2.5v-42.6c0-1.4 1.1-2.5 2.5-2.5h11.4c1.4 0 2.5 1.1 2.5 2.5v42.6c0 1.3-1.1 2.5-2.5 2.5zm-8.9-5h6.4v-37.6h-6.4z"/><path d="m245.1 167.6h-11.4c-1.4 0-2.5-1.1-2.5-2.5v-42.6c0-1.4 1.1-2.5 2.5-2.5h11.4c1.4 0 2.5 1.1 2.5 2.5v42.6c0 1.3-1.2 2.5-2.5 2.5zm-9-5h6.4v-37.6h-6.4z"/><path d="m71.4 179h-63.2c-4.5 0-8.2-3.7-8.2-8.2s3.7-8.2 8.2-8.2h63.2c4.5 0 8.2 3.7 8.2 8.2s-3.7 8.2-8.2 8.2zm-63.2-11.4c-1.8 0-3.2 1.4-3.2 3.2s1.4 3.2 3.2 3.2h63.2c1.8 0 3.2-1.4 3.2-3.2s-1.4-3.2-3.2-3.2z"/><path d="m74.3 124.9h-66.6c-2.9-.1-5.4-1.7-6.6-4.3-1.4-2.7-1.1-6 .8-8.5.2-.3.5-.6.7-.8l32.9-32.8c3-3.1 7.9-3.1 10.9-.1 0 0 .1.1.1.1l32.9 32.8c.3.3.5.5.7.8 1.9 2.5 2.2 5.8.8 8.5-1.2 2.6-3.7 4.3-6.6 4.3zm-33.3-43.8c-.8 0-1.5.3-2 .9l-32.9 32.8c-.1.1-.2.2-.3.4-.7.9-.8 2.2-.2 3.2.4.9 1.2 1.4 2.1 1.5h66.6c.9-.1 1.8-.7 2.1-1.5.5-1 .5-2.3-.2-3.2-.1-.1-.2-.2-.3-.3l-32.9-32.9c-.5-.6-1.3-.9-2-.9z"/><path d="m22.5 167.6h-11.4c-1.4 0-2.5-1.1-2.5-2.5v-42.6c0-1.4 1.1-2.5 2.5-2.5h11.4c1.4 0 2.5 1.1 2.5 2.5v42.6c0 1.3-1.1 2.5-2.5 2.5zm-8.9-5h6.4v-37.6h-6.4z"/><path d="m46.7 167.6h-11.4c-1.4 0-2.5-1.1-2.5-2.5v-42.6c0-1.4 1.1-2.5 2.5-2.5h11.4c1.4 0 2.5 1.1 2.5 2.5v42.6c0 1.3-1.1 2.5-2.5 2.5zm-8.9-5h6.4v-37.6h-6.4z"/><path d="m70.8 167.6h-11.4c-1.4 0-2.5-1.1-2.5-2.5v-42.6c0-1.4 1.1-2.5 2.5-2.5h11.4c1.4 0 2.5 1.1 2.5 2.5v42.6c0 1.3-1.1 2.5-2.5 2.5zm-8.9-5h6.4v-37.6h-6.4z"/><path d="m177.6 77.3c-.7 0-1.3-.3-1.8-.7-25.9-26.4-68.3-26.8-94.7-.9-.3.3-.6.6-.9.9-1 .9-2.6.9-3.5-.1s-.9-2.4 0-3.4c27.8-28.4 73.4-28.8 101.8-.9.3.3.6.6.9.9 1 1 1 2.6 0 3.5-.5.5-1.2.7-1.8.7z"/><path d="m128 205.5c-13.2 0-26.1-3.6-37.4-10.5-1.2-.7-1.6-2.3-.8-3.4.7-1.2 2.3-1.6 3.4-.8 21.4 13 48.2 13 69.6 0 1.2-.7 2.7-.3 3.4.8s.3 2.7-.8 3.4c-11.3 6.9-24.2 10.5-37.4 10.5z"/><path d="m215.1 114.9c-5.1 0-9.2-4.1-9.2-9.2s4.1-9.2 9.2-9.2 9.2 4.1 9.2 9.2c0 5.1-4.1 9.2-9.2 9.2zm0-13.3c-2.3 0-4.2 1.9-4.2 4.2s1.9 4.2 4.2 4.2 4.2-1.9 4.2-4.2c0-2.4-1.9-4.2-4.2-4.2z"/><path d="m40.9 114.9c-5.1 0-9.2-4.1-9.2-9.2s4.1-9.2 9.2-9.2 9.2 4.1 9.2 9.2c-.1 5.1-4.2 9.2-9.2 9.2zm0-13.3c-2.3 0-4.2 1.9-4.2 4.2s1.9 4.2 4.2 4.2 4.2-1.9 4.2-4.2c-.1-2.4-1.9-4.2-4.2-4.2z"/></g></svg>